# xmcd
#
# Track frame offsets:
#	180
#	8970
#	20217
#	32168
#	43752
#	54705
#	67449
#	78003
#	90986
#	103891
#	115932
#	126827
#	140752
#	152277
#	164568
#	176624
#
# Disc length: 2485 seconds
#
# Revision: 1
# Processed by: cddbd v1.5.2PL0 Copyright (c) Steve Scherf et al.
# Submitted via: audiograbber 1.83.01
#
DISCID=de09b310
DTITLE=Various Artist - Country Legends Vol.1 - CD3
DYEAR=2005
DGENRE=Country
TTITLE0=GENE AUTREY - Gaucho Serenade
TTITLE1=ERNEST TUBB - I Ain't Tonkin' Anymore
TTITLE2=TED DAFFAN - Born To Lose
TTITLE3=MERLE TRAVIS - Cincinnati Lou
TTITLE4=HANK PENNY - I'm Gonna Change Things
TTITLE5=PAUL HOWARD - Drinking All My Troubles Away
TTITLE6=BOB WILLS - Cowboy Stomp
TTITLE7=JOHNNY BOND  - Birmingham Jail
TTITLE8=TEX WILLIAMS  - Artistry In Western Swing
TTITLE9=JOHNNY BOND - Heart And Soul
TTITLE10=ANDY REYNOLDS - Beer Bottle Mam
TTITLE11="TENNESSEE" ERNIE FORD - Mister And Mississippi
TTITLE12="TENNESSEE" ERNIE FORD - I'll Never Be Free
TTITLE13=BUSTER MARTIN - Herbie's Steel Guitar Polka
TTITLE14=JERRY IRBY - Trouble In Mind
TTITLE15="TENNESSEE" ERNIE FORD - Rock City Boogie
EXTD=
EXTT0=
EXTT1=
EXTT2=
EXTT3=
EXTT4=
EXTT5=
EXTT6=
EXTT7=
EXTT8=
EXTT9=
EXTT10=
EXTT11=
EXTT12=
EXTT13=
EXTT14=
EXTT15=
PLAYORDER=
